<!-- Generated by IcoMoon.io -->
<svg version="1.1" xmlns="http://www.w3.org/2000/svg" width="893" height="1024" viewBox="0 0 893 1024">
<title></title>
<g id="icomoon-ignore">
</g>
<path d="M130.723 0l152.681 145.46-283.404-0.168v705.737h740.766v-269.837l152.511 145.299v-726.491h-762.553zM734.064 564.119l-432.908-412.437h432.908v412.437zM599.652 747.797h-482.435v-474.644h34.102v442.503h448.333v32.141zM213.426 981.757l-17.979-36.969h-14.84l26.064 48.936v28.511h13.457v-28.511l26.064-48.936h-14.787l-17.979 36.969zM279.702 944.788h3.192l29.254 77.447h-14.042l-6.266-18.138h-29.981l-6.253 18.138h-13.99l29.149-77.447h8.937zM265.508 993.513h22.674l-11.349-32.855-11.325 32.855zM359.099 980.68c-0.584-0.743-1.146-1.464-1.684-2.168-1.987-2.625-3.53-5.159-4.628-7.606-1.1-2.484-1.649-5.037-1.649-7.66 0-4.042 0.832-7.517 2.499-10.425s4.026-5.142 7.076-6.702c3.048-1.597 6.612-2.394 10.691-2.394 3.935 0 7.323 0.797 10.159 2.394 2.872 1.56 5.070 3.634 6.595 6.222 1.56 2.588 2.34 5.425 2.34 8.51 0 2.447-0.442 4.682-1.329 6.704-0.887 2.020-2.109 3.865-3.671 5.532-1.56 1.667-3.368 3.244-5.425 4.734l-5.379 3.915 15.336 18.099c0.505-0.993 0.963-2.039 1.373-3.131 1.314-3.405 1.97-7.181 1.97-11.332h11.064c0 3.76-0.373 7.323-1.118 10.693-0.708 3.368-1.861 6.488-3.458 9.36-0.647 1.192-1.379 2.331-2.196 3.418l11.345 13.39h-14.839l-4.501-5.294c-2.436 1.85-5.085 3.294-7.946 4.338-3.758 1.346-7.765 2.022-12.020 2.022-5.144 0-9.593-0.941-13.351-2.819-3.76-1.88-6.667-4.469-8.724-7.767-2.022-3.299-3.033-7.074-3.033-11.329 0-3.157 0.656-5.922 1.967-8.299 1.314-2.41 3.105-4.645 5.373-6.702 2.096-1.902 4.484-3.802 7.164-5.704zM365.455 988.463l-1.604 1.166c-1.88 1.525-3.281 2.998-4.203 4.416-0.887 1.383-1.471 2.66-1.754 3.83-0.285 1.17-0.427 2.198-0.427 3.085 0 2.268 0.479 4.325 1.436 6.17 0.993 1.843 2.429 3.314 4.31 4.414 1.915 1.063 4.238 1.595 6.968 1.595 2.943 0 5.798-0.656 8.565-1.967 1.386-0.675 2.702-1.488 3.943-2.44l-17.234-20.269zM368.516 974.316l4.75-3.198c2.235-1.488 3.83-2.943 4.789-4.362 0.956-1.453 1.436-3.262 1.436-5.425 0-1.843-0.71-3.545-2.129-5.107-1.418-1.56-3.423-2.34-6.011-2.34-1.808 0-3.333 0.425-4.573 1.277-1.242 0.815-2.181 1.915-2.819 3.299-0.604 1.346-0.904 2.854-0.904 4.521 0 1.595 0.407 3.244 1.222 4.946 0.817 1.667 1.933 3.423 3.351 5.266 0.29 0.37 0.586 0.743 0.889 1.124zM504.011 997.023h-13.299c-0.39 3.368-1.205 6.222-2.447 8.565-1.205 2.305-2.996 4.059-5.371 5.266-2.342 1.205-5.408 1.808-9.203 1.808-3.12 0-5.798-0.621-8.033-1.863-2.233-1.24-4.076-2.996-5.532-5.266-1.418-2.268-2.482-4.983-3.19-8.138-0.675-3.192-1.011-6.739-1.011-10.639v-6.543c0-4.113 0.373-7.765 1.116-10.957 0.78-3.227 1.933-5.939 3.458-8.14 1.525-2.198 3.423-3.865 5.693-4.998 2.268-1.135 4.928-1.704 7.978-1.704 3.723 0 6.737 0.638 9.042 1.915 2.305 1.242 4.044 3.050 5.214 5.425 1.205 2.377 1.985 5.231 2.34 8.565h13.297c-0.532-5.177-1.985-9.769-4.362-13.776-2.34-4.007-5.636-7.146-9.894-9.414-4.255-2.27-9.467-3.405-15.637-3.405-4.859 0-9.238 0.852-13.14 2.553-3.865 1.702-7.179 4.166-9.946 7.395-2.767 3.19-4.893 7.037-6.384 11.541-1.453 4.503-2.181 9.541-2.181 15.107v6.436c0 5.567 0.71 10.604 2.129 15.107 1.453 4.503 3.547 8.351 6.277 11.543 2.73 3.155 6.011 5.601 9.839 7.34 3.83 1.702 8.14 2.553 12.926 2.553 6.242 0 11.543-1.135 15.905-3.405s7.748-5.373 10.159-9.308c2.412-3.972 3.83-8.495 4.255-13.565zM577.893 985.639v-4.255c0-5.85-0.78-11.081-2.34-15.691-1.525-4.645-3.706-8.599-6.543-11.861-2.837-3.299-6.222-5.798-10.159-7.501-3.937-1.736-8.299-2.606-13.085-2.606-4.752 0-9.096 0.869-13.031 2.606-3.902 1.704-7.288 4.203-10.159 7.501-2.839 3.262-5.037 7.216-6.597 11.861-1.56 4.61-2.34 9.841-2.34 15.691v4.255c0 5.852 0.78 11.101 2.34 15.746 1.597 4.645 3.83 8.599 6.702 11.861 2.874 3.264 6.259 5.763 10.159 7.501 3.937 1.702 8.281 2.553 13.033 2.553 4.787 0 9.148-0.852 13.085-2.553 3.935-1.739 7.305-4.238 10.105-7.501 2.837-3.262 5.018-7.216 6.543-11.861s2.288-9.894 2.288-15.746zM564.542 981.277v4.362c0 4.327-0.425 8.157-1.277 11.491-0.815 3.333-2.020 6.153-3.617 8.458-1.595 2.268-3.545 3.989-5.85 5.159-2.305 1.135-4.948 1.702-7.926 1.702-2.943 0-5.567-0.566-7.872-1.702-2.305-1.17-4.292-2.891-5.959-5.159-1.63-2.305-2.872-5.124-3.723-8.458s-1.277-7.164-1.277-11.491v-4.362c0-4.325 0.427-8.138 1.277-11.436 0.852-3.333 2.074-6.116 3.671-8.351 1.63-2.268 3.599-3.972 5.904-5.105 2.305-1.17 4.928-1.756 7.872-1.756s5.586 0.586 7.926 1.756c2.34 1.133 4.307 2.837 5.904 5.105 1.63 2.235 2.854 5.018 3.669 8.351 0.852 3.299 1.277 7.111 1.277 11.436z"></path>
</svg>
