<!-- Generated by IcoMoon.io -->
<svg version="1.1" xmlns="http://www.w3.org/2000/svg" width="1402" height="1024" viewBox="0 0 1402 1024">
<title></title>
<g id="icomoon-ignore">
</g>
<path d="M106.671 854.216c5.464 6.088 8.375 13.715 8.223 21.542 0.279 5.104-0.722 10.2-2.927 14.91s-5.56 8.913-9.814 12.299c-10.615 7.217-23.766 10.745-37.039 9.935h-65.114v-136.513h63.781c12.59-0.752 25.080 2.453 35.335 9.071 4.119 3.103 7.381 7.026 9.527 11.458s3.12 9.254 2.843 14.082c0.374 7.531-2.253 14.935-7.408 20.874-4.949 5.425-11.788 9.185-19.408 10.672 8.639 1.418 16.436 5.554 22.001 11.669zM30.297 833.609h27.261c6.195 0.414 12.349-1.198 17.334-4.535 2.047-1.67 3.639-3.742 4.654-6.055s1.425-4.804 1.198-7.282c0.192-2.471-0.226-4.949-1.225-7.255s-2.554-4.383-4.553-6.084c-5.134-3.433-11.479-5.067-17.853-4.601h-26.816v35.811zM77.559 885.96c2.188-1.71 3.908-3.849 5.026-6.255s1.603-5.013 1.419-7.615c0.167-2.633-0.341-5.265-1.484-7.693s-2.891-4.588-5.109-6.311c-5.333-3.56-11.893-5.307-18.519-4.935h-28.594v37.545h28.964c6.52 0.338 12.973-1.331 18.297-4.735z"></path>
<path d="M237.049 912.903l-35.484-53.35h-13.334v53.35h-30.52v-136.513h57.781c14.565-0.915 28.963 3.239 40.223 11.605 8.078 7.408 12.949 17.172 13.737 27.528 0.788 10.358-2.56 20.627-9.439 28.959-7.13 7.351-16.867 12.252-27.557 13.871l37.779 54.55h-33.187zM188.231 840.947h24.964c17.333 0 26.002-6.892 26.002-20.674 0.176-2.816-0.298-5.632-1.396-8.272s-2.792-5.047-4.975-7.068c-5.478-4.1-12.533-6.091-19.631-5.534h-25.261l0.296 41.548z"></path>
<path d="M403.87 885.431h-60.819l-10.741 27.474h-32l55.853-134.979h34.596l55.632 134.979h-32.002l-10.518-27.474zM395.72 864.757l-22.223-57.62-22.223 57.62h44.446z"></path>
<path d="M612.695 912.905h-30.297l-67.929-92.832v92.832h-30.224v-136.513h30.224l67.929 93.364v-93.364h30.297v136.513z"></path>
<path d="M785.593 880.228c-6.264 10.307-15.81 18.69-27.41 24.073-13.19 5.997-27.824 8.953-42.594 8.604h-53.929v-136.513h53.929c14.743-0.347 29.362 2.538 42.594 8.403 11.598 5.26 21.152 13.561 27.41 23.808 6.235 11.101 9.485 23.369 9.485 35.811s-3.25 24.71-9.485 35.813zM750.924 876.96c8.646-9.069 13.401-20.627 13.401-32.579s-4.755-23.507-13.401-32.577c-10.451-8.214-24.082-12.386-37.928-11.605h-21.039v88.362h21.039c13.846 0.781 27.477-3.388 37.928-11.602z"></path>
<path d="M422.834 17.068c0 0 391.054 132.912 382.758 325.244v325.309c0 0-390.758-132.978-382.609-325.309l-0.149-325.244z"></path>
<path d="M1153.979 591.458c73.853-45.757 159.281-74.098 248.456-82.428v-101.835c-102.752 35.651-189.916 100.296-248.456 184.262z"></path>
<path d="M1109.606 622.142c60.447-109.579 165.242-194.137 292.828-236.281v-293.432c0 0-556.916 189.331-545.138 463.222v463.157c0 0 24.816-8.47 63.855-24.342 0-14.803 0-29.743 1.779-44.749 11.524-127.154 78.672-244.981 186.675-327.575z"></path>
<path d="M1056.641 794.199c2.925-32.12 9.454-63.893 19.483-94.831-67.25 71.328-107.976 159.837-116.449 253.084-0.815 8.804-1.26 17.606-1.483 26.677 31.63-13.673 68.448-30.744 107.117-50.817-9.868-44.117-12.787-89.264-8.668-134.113z"></path>
<path d="M1078.788 795.868c-3.706 40.575-1.391 81.415 6.89 121.44 152.155-81.96 323.125-208.604 316.534-361.655v-13.339c-108.711 10.95-210.419 53.733-289.496 121.774-18.514 42.167-29.95 86.579-33.928 131.78z"></path>
</svg>
