<!-- Generated by IcoMoon.io -->
<svg version="1.1" xmlns="http://www.w3.org/2000/svg" width="1099" height="1024" viewBox="0 0 1099 1024">
<title></title>
<g id="icomoon-ignore">
</g>
<path d="M170.079 1004.601c0.403 0.007 0.799 0.087 1.166 0.227 0.367 0.142 0.697 0.345 0.972 0.597l5.515 5.185c-4.281 4.196-9.572 7.55-15.512 9.838-6.955 2.495-14.451 3.699-21.992 3.534-7.086 0.125-14.126-0.999-20.682-3.299-5.914-2.113-11.228-5.287-15.581-9.308-4.443-4.171-7.865-9.056-10.065-14.373-2.41-5.927-3.599-12.166-3.516-18.439-0.098-6.314 1.188-12.59 3.792-18.499 2.408-5.35 6.041-10.238 10.686-14.373 4.708-4.059 10.339-7.245 16.546-9.368 6.79-2.248 14.021-3.369 21.303-3.299 6.764-0.14 13.493 0.882 19.786 3.005 5.46 2.026 10.474 4.835 14.823 8.307l-4.619 5.537c-0.319 0.39-0.716 0.729-1.172 1.002-0.545 0.32-1.204 0.467-1.861 0.415-0.716-0.042-1.405-0.247-1.999-0.589l-2.482-1.474-3.447-1.886c-1.488-0.699-3.032-1.309-4.619-1.826-2.045-0.624-4.142-1.119-6.274-1.474-2.705-0.425-5.453-0.622-8.204-0.589-5.244-0.055-10.448 0.787-15.305 2.475-4.53 1.563-8.619 3.934-11.996 6.951-3.438 3.209-6.087 6.976-7.79 11.077-1.942 4.69-2.899 9.636-2.827 14.611-0.083 5.050 0.874 10.075 2.827 14.846 1.682 4.064 4.282 7.807 7.652 11.017 3.158 2.992 7.072 5.327 11.444 6.833 4.5 1.593 9.331 2.395 14.202 2.358 2.814 0.035 5.627-0.122 8.411-0.472 4.546-0.475 8.907-1.823 12.754-3.949 1.93-1.086 3.751-2.308 5.446-3.651 0.709-0.577 1.641-0.914 2.62-0.942z"></path>
<path d="M329.331 978.552c0.087 6.249-1.176 12.46-3.721 18.32-2.248 5.315-5.787 10.163-10.385 14.226-4.601 4.061-10.153 7.243-16.297 9.338-13.497 4.398-28.417 4.398-41.914 0-6.104-2.128-11.622-5.317-16.202-9.368-4.596-4.133-8.161-9.024-10.479-14.373-4.966-11.863-4.966-24.833 0-36.699 2.352-5.35 5.912-10.255 10.479-14.431 4.619-3.924 10.133-6.991 16.202-9.014 13.479-4.478 28.435-4.478 41.914 0 6.124 2.125 11.666 5.315 16.272 9.366 4.538 4.096 8.077 8.921 10.41 14.196 2.553 5.899 3.816 12.151 3.721 18.439zM314.855 978.552c0.107-5-0.779-9.98-2.62-14.728-1.546-4.066-4.056-7.815-7.378-11.014-3.232-3.027-7.213-5.402-11.651-6.951-9.808-3.222-20.665-3.222-30.47 0-4.441 1.548-8.419 3.924-11.651 6.951-3.367 3.179-5.905 6.933-7.446 11.014-3.508 9.591-3.508 19.866 0 29.454 1.556 4.076 4.092 7.827 7.446 11.017 3.237 3.010 7.215 5.362 11.651 6.893 9.823 3.137 20.645 3.137 30.47 0 4.436-1.531 8.414-3.884 11.651-6.893 3.307-3.207 5.817-6.956 7.378-11.017 1.851-4.745 2.735-9.726 2.62-14.726z"></path>
<path d="M437.985 993.997l1.446 3.299c0.552-1.179 1.034-2.238 1.586-3.299 0.527-1.106 1.124-2.188 1.793-3.239l35.228-54.719c0.689-0.942 1.311-1.531 2.001-1.708 0.937-0.242 1.916-0.342 2.895-0.295h10.41v89.001h-12.34v-65.439c0-0.824 0-1.768 0-2.77-0.067-1.019-0.067-2.043 0-3.062l-35.435 55.483c-0.45 0.832-1.169 1.536-2.075 2.026-0.904 0.492-1.956 0.749-3.027 0.744h-1.998c-1.074 0.012-2.128-0.242-3.035-0.734s-1.626-1.199-2.068-2.036l-36.469-55.835c0 1.059 0 2.12 0 3.179 0 1.061 0 2.003 0 2.827v65.439h-11.926v-88.823h10.41c0.977-0.047 1.958 0.052 2.895 0.295 0.854 0.362 1.536 0.967 1.931 1.708l35.987 54.779c0.707 1.012 1.306 2.075 1.793 3.179z"></path>
<path d="M570.56 989.576v33.335h-13.789v-88.878h30.747c5.804-0.095 11.591 0.559 17.166 1.943 4.463 1.081 8.602 2.97 12.136 5.537 3.062 2.408 5.422 5.392 6.893 8.716 1.628 3.626 2.423 7.485 2.343 11.369 0.062 3.899-0.807 7.765-2.55 11.366-1.656 3.412-4.203 6.454-7.445 8.894-3.537 2.675-7.695 4.683-12.203 5.892-5.367 1.464-10.982 2.16-16.614 2.060l-16.684-0.235zM570.56 980.033h16.684c3.624 0.040 7.23-0.417 10.685-1.354 2.85-0.819 5.477-2.123 7.722-3.829 2.070-1.631 3.674-3.644 4.688-5.889 1.129-2.375 1.691-4.918 1.653-7.48 0.162-2.473-0.31-4.943-1.381-7.24-1.071-2.3-2.717-4.371-4.823-6.072-5.267-3.514-11.883-5.215-18.544-4.77h-16.684v36.634z"></path>
<path d="M755.874 1023.033h-10.894c-1.091 0.035-2.165-0.257-3.032-0.827-0.782-0.554-1.396-1.261-1.793-2.060l-9.376-21.502h-47.087l-9.721 21.502c-0.357 0.787-0.952 1.476-1.723 2.003-0.877 0.602-1.978 0.917-3.102 0.884h-10.894l41.365-89.008h14.341l41.917 89.008zM687.621 989.986h38.885l-16.409-36.227c-1.254-2.725-2.29-5.52-3.102-8.364l-1.586 4.653c-0.482 1.414-1.034 2.71-1.516 3.769l-16.272 36.17z"></path>
<path d="M815.441 934.437c0.824 0.387 1.534 0.932 2.068 1.591l60.324 67.094c0-1.061 0-2.12 0-3.122s0-2.003 0-2.945v-63.031h12.34v89.008h-6.893c-0.979 0.025-1.951-0.157-2.827-0.529-0.852-0.425-1.601-0.987-2.205-1.651l-60.254-67.035c0.065 1.022 0.065 2.043 0 3.062 0 1.002 0 1.886 0 2.71v63.443h-12.34v-89.008h7.308c0.852-0.020 1.698 0.122 2.48 0.412z"></path>
<path d="M991.791 987.631v35.343h-13.789v-35.343l-38.125-53.605h12.34c1.064-0.052 2.115 0.217 2.965 0.767 0.752 0.572 1.381 1.249 1.863 2.003l23.854 34.576c0.964 1.474 1.791 2.827 2.48 4.123s1.241 2.533 1.723 3.771l1.793-3.829c0.669-1.401 1.454-2.76 2.345-4.066l23.507-34.814c0.495-0.694 1.099-1.329 1.793-1.883 0.819-0.612 1.881-0.927 2.965-0.884h12.478l-38.193 53.84z"></path>
<path d="M431.159 784.659c5.997 0.647 12.063 1.179 18.2 1.648 93.024-35.553 171.717-93.746 226.247-167.302 54.527-73.556 82.472-159.212 80.337-246.262l-102.515-87.592c20.845 92.682 11.094 188.491-28.16 276.707s-106.464 165.359-194.108 222.8z"></path>
<path d="M394.552 780.585l2.757 0.472c93.656-57.237 165.061-137.164 204.98-229.443 39.921-92.282 46.517-192.672 18.942-288.191l-146.017-124.755c59.060 102.546 82.832 217.31 68.553 330.946s-66.023 221.474-149.214 310.971z"></path>
<path d="M889.759 475.596c-24.808 95.647-85.057 181.907-171.802 245.977-25.335 18.814-52.661 35.575-81.628 50.066 70.636-17.738 135.56-49.1 189.767-91.665 54.207-42.563 96.249-95.197 122.882-153.84l-59.22-50.538z"></path>
<path d="M866.524 461.509l-84.315-72.040c-1.611 82.132-28.939 162.399-79.145 232.453-50.203 70.057-121.454 127.346-206.341 165.913h0.415c18.917-0.007 37.816-0.972 56.6-2.887 79.333-27.665 149.414-71.68 203.993-128.117 54.577-56.437 91.955-123.539 108.794-195.322z"></path>
<path d="M406.755 86.058l-100.587-86.058c-89.919 29.688-167.254 81.879-221.882 149.742s-84.006 148.237-84.286 230.599v0c0.337 91.011 36.189 179.325 101.883 250.965 65.693 71.643 157.476 122.518 260.818 144.576 92.255-96.034 146.267-214.698 154.189-338.752s-30.658-247.034-110.135-351.072z"></path>
<path d="M1098.927 448.257c-0.365-107.977-50.728-211.445-140.093-287.797s-210.464-119.384-336.844-119.695c-58.398-0.052-116.301 9.156-170.768 27.154l615.854 526.182c21.087-46.512 31.889-95.964 31.851-145.845z"></path>
</svg>
