<!-- Generated by IcoMoon.io -->
<svg version="1.1" xmlns="http://www.w3.org/2000/svg" width="2098" height="1024" viewBox="0 0 2098 1024">
<title></title>
<g id="icomoon-ignore">
</g>
<path d="M326.636 312.642h-0.072c-59.582 0-107.884 43.55-107.884 97.268v0.065c0 53.718 48.302 97.265 107.884 97.265h0.072c59.582 0 107.885-43.547 107.885-97.265v-0.065c0-53.718-48.303-97.268-107.885-97.268z"></path>
<path d="M1122.938 281.55c-0.17-74.615-33.115-146.13-91.626-198.895s-137.823-82.485-220.58-82.655v0c-82.779 0.136-162.127 29.84-220.67 82.61-58.54 52.769-91.506 124.304-91.675 198.94v411.453c0 0 624.478-62.709 624.55-411.391v-0.062z"></path>
<path d="M0 828.049c0.15 51.917 23.086 101.671 63.796 138.387s95.884 57.411 153.466 57.564c57.569-0.152 112.733-20.837 153.441-57.541s63.653-86.441 63.823-138.345v-286.298c0 0-434.526 43.667-434.526 286.233zM217.262 879.346c-11.253 0-22.252-3.010-31.608-8.647-9.356-5.634-16.648-13.647-20.955-23.020s-5.433-19.688-3.237-29.639c2.195-9.95 7.614-19.089 15.571-26.264 7.956-7.173 18.094-12.058 29.13-14.039 11.036-1.978 22.476-0.962 32.872 2.92 10.396 3.884 19.281 10.457 25.532 18.894 6.251 8.434 9.588 18.352 9.588 28.497 0.030 6.753-1.421 13.444-4.268 19.691-2.847 6.244-7.033 11.923-12.318 16.706-5.287 4.783-11.568 8.579-18.484 11.169s-14.332 3.924-21.822 3.924v-0.192z"></path>
<path d="M614.622 787.106v106.536h-21.951v-106.536h21.951zM657.061 832.619v17.121h-48.438v-17.121h48.438zM662.183 787.106v17.196h-53.56v-17.196h53.56zM762.428 837.887v5.050c0 8.097-1.099 15.365-3.294 21.804s-5.292 11.928-9.293 16.464c-3.999 4.488-8.779 7.927-14.341 10.317-5.512 2.39-11.634 3.584-18.365 3.584-6.683 0-12.805-1.194-18.367-3.584-5.512-2.39-10.292-5.829-14.341-10.317-4.049-4.536-7.195-10.025-9.438-16.464-2.195-6.439-3.294-13.707-3.294-21.804v-5.050c0-8.147 1.099-15.415 3.294-21.804 2.195-6.439 5.292-11.928 9.291-16.464 4.051-4.536 8.831-8 14.343-10.39 5.56-2.39 11.681-3.586 18.365-3.586 6.733 0 12.855 1.196 18.367 3.586 5.56 2.39 10.34 5.854 14.341 10.39 4.049 4.536 7.17 10.025 9.366 16.464 2.243 6.389 3.367 13.657 3.367 21.804zM740.257 842.937v-5.195c0-5.659-0.512-10.635-1.538-14.928-1.024-4.293-2.535-7.902-4.536-10.829s-4.438-5.122-7.318-6.586c-2.877-1.511-6.169-2.268-9.878-2.268-3.706 0-7.001 0.757-9.878 2.268-2.83 1.464-5.242 3.659-7.243 6.586-1.953 2.927-3.439 6.536-4.463 10.829-1.026 4.293-1.538 9.268-1.538 14.928v5.195c0 5.61 0.512 10.585 1.538 14.925 1.024 4.293 2.535 7.927 4.536 10.902 2.001 2.927 4.438 5.147 7.318 6.658 2.877 1.514 6.169 2.27 9.878 2.27 3.706 0 7.001-0.757 9.878-2.27 2.877-1.511 5.292-3.731 7.243-6.658 1.953-2.975 3.439-6.609 4.463-10.902 1.026-4.341 1.538-9.316 1.538-14.925zM833.696 865.765c0-1.901-0.292-3.609-0.879-5.12-0.537-1.561-1.561-2.977-3.072-4.246-1.514-1.316-3.634-2.61-6.366-3.876-2.732-1.269-6.269-2.587-10.61-3.951-4.83-1.561-9.416-3.319-13.757-5.27-4.293-1.951-8.097-4.218-11.414-6.803-3.269-2.635-5.854-5.684-7.757-9.149-1.853-3.462-2.78-7.488-2.78-12.073 0-4.438 0.977-8.462 2.927-12.073 1.951-3.656 4.683-6.778 8.194-9.366 3.512-2.632 7.658-4.658 12.44-6.072 4.828-1.416 10.12-2.123 15.877-2.123 7.852 0 14.708 1.416 20.56 4.243 5.854 2.83 10.392 6.708 13.612 11.636 3.267 4.925 4.9 10.56 4.9 16.901h-21.804c0-3.122-0.659-5.854-1.976-8.194-1.269-2.39-3.219-4.268-5.854-5.634-2.585-1.366-5.854-2.048-9.805-2.048-3.804 0-6.976 0.584-9.511 1.756-2.538 1.121-4.438 2.657-5.707 4.61-1.269 1.901-1.903 4.049-1.903 6.439 0 1.803 0.44 3.439 1.316 4.903 0.927 1.464 2.293 2.827 4.098 4.096s4.024 2.465 6.658 3.586c2.635 1.121 5.682 2.218 9.146 3.292 5.804 1.756 10.902 3.731 15.293 5.927 4.438 2.195 8.147 4.658 11.122 7.39 2.977 2.732 5.22 5.829 6.733 9.293 1.511 3.464 2.268 7.39 2.268 11.781 0 4.633-0.904 8.779-2.707 12.438-1.806 3.659-4.416 6.756-7.83 9.293-3.414 2.535-7.488 4.463-12.221 5.779-4.73 1.319-10.023 1.976-15.877 1.976-5.267 0-10.462-0.682-15.585-2.048-5.122-1.414-9.78-3.537-13.976-6.366-4.146-2.83-7.463-6.439-9.95-10.829s-3.731-9.586-3.731-15.585h22.023c0 3.317 0.512 6.122 1.536 8.414s2.463 4.146 4.318 5.562c1.901 1.414 4.146 2.438 6.731 3.072 2.635 0.634 5.512 0.952 8.634 0.952 3.804 0 6.926-0.537 9.366-1.608 2.488-1.074 4.318-2.562 5.487-4.466 1.221-1.901 1.831-4.049 1.831-6.439zM918.208 787.106v106.536h-21.879v-106.536h21.879zM950.989 787.106v17.196h-86.928v-17.196h86.928zM1034.987 876.522v17.121h-56.707v-17.121h56.707zM985.45 787.106v106.536h-21.951v-106.536h21.951zM1027.596 830.496v16.684h-49.317v-16.684h49.317zM1034.914 787.106v17.196h-56.635v-17.196h56.635zM1047.792 787.106h39.734c8.145 0 15.145 1.219 20.999 3.659 5.902 2.44 10.437 6.049 13.609 10.829s4.755 10.66 4.755 17.633c0 5.709-0.974 10.612-2.927 14.708-1.901 4.049-4.608 7.44-8.122 10.17-3.462 2.685-7.535 4.83-12.218 6.441l-6.951 3.656h-34.536l-0.147-17.121h25.682c3.854 0 7.048-0.684 9.586-2.048 2.538-1.366 4.438-3.269 5.707-5.709 1.319-2.438 1.976-5.267 1.976-8.487 0-3.414-0.634-6.366-1.901-8.854-1.269-2.488-3.197-4.391-5.782-5.707s-5.829-1.976-9.73-1.976h-17.783v89.34h-21.951v-106.536zM1107.354 893.642l-24.294-47.486 23.197-0.147 24.583 46.609v1.024h-23.487zM1222.599 855.667h-27.148v-17.121h27.148c4.193 0 7.608-0.684 10.242-2.048 2.635-1.416 4.561-3.367 5.782-5.854 1.219-2.488 1.828-5.292 1.828-8.414 0-3.172-0.609-6.124-1.828-8.854-1.221-2.732-3.147-4.928-5.782-6.586s-6.049-2.488-10.242-2.488h-19.538v89.34h-21.951v-106.536h41.489c8.339 0 15.487 1.514 21.439 4.538 5.999 2.975 10.585 7.096 13.754 12.365 3.172 5.267 4.758 11.291 4.758 18.072 0 6.878-1.586 12.83-4.758 17.853-3.169 5.025-7.755 8.904-13.754 11.636-5.952 2.73-13.1 4.096-21.439 4.096zM1349.182 876.522v17.121h-56.707v-17.121h56.707zM1299.646 787.106v106.536h-21.951v-106.536h21.951zM1341.792 830.496v16.684h-49.317v-16.684h49.317zM1349.11 787.106v17.196h-56.635v-17.196h56.635zM1411.084 787.106v106.536h-21.876v-106.536h21.876zM1443.865 787.106v17.196h-86.925v-17.196h86.925zM1527.865 876.522v17.121h-56.707v-17.121h56.707zM1478.329 787.106v106.536h-21.951v-106.536h21.951zM1520.475 830.496v16.684h-49.317v-16.684h49.317zM1527.793 787.106v17.196h-56.635v-17.196h56.635zM1540.67 787.106h39.731c8.147 0 15.148 1.219 21.002 3.659 5.902 2.44 10.437 6.049 13.609 10.829 3.169 4.78 4.755 10.66 4.755 17.633 0 5.709-0.977 10.612-2.927 14.708-1.903 4.049-4.61 7.44-8.122 10.17-3.464 2.685-7.535 4.83-12.218 6.441l-6.953 3.656h-34.536l-0.145-17.121h25.682c3.854 0 7.048-0.684 9.586-2.048 2.535-1.366 4.438-3.269 5.707-5.709 1.316-2.438 1.976-5.267 1.976-8.487 0-3.414-0.634-6.366-1.903-8.854s-3.194-4.391-5.779-5.707c-2.585-1.316-5.829-1.976-9.733-1.976h-17.78v89.34h-21.951v-106.536zM1600.232 893.642l-24.294-47.486 23.195-0.147 24.586 46.609v1.024h-23.487zM1692.135 865.765c0-1.901-0.295-3.609-0.879-5.12-0.537-1.561-1.561-2.977-3.072-4.246-1.514-1.316-3.634-2.61-6.366-3.876-2.732-1.269-6.269-2.587-10.61-3.951-4.83-1.561-9.416-3.319-13.757-5.27-4.293-1.951-8.097-4.218-11.414-6.803-3.269-2.635-5.854-5.684-7.757-9.149-1.853-3.462-2.78-7.488-2.78-12.073 0-4.438 0.974-8.462 2.927-12.073 1.951-3.656 4.683-6.778 8.194-9.366 3.512-2.632 7.658-4.658 12.438-6.072 4.83-1.416 10.123-2.123 15.879-2.123 7.852 0 14.708 1.416 20.56 4.243 5.854 2.83 10.39 6.708 13.612 11.636 3.267 4.925 4.9 10.56 4.9 16.901h-21.804c0-3.122-0.659-5.854-1.976-8.194-1.269-2.39-3.219-4.268-5.854-5.634-2.585-1.366-5.854-2.048-9.805-2.048-3.804 0-6.976 0.584-9.511 1.756-2.538 1.121-4.441 2.657-5.707 4.61-1.269 1.901-1.903 4.049-1.903 6.439 0 1.803 0.44 3.439 1.316 4.903 0.927 1.464 2.293 2.827 4.098 4.096s4.024 2.465 6.658 3.586c2.635 1.121 5.682 2.218 9.146 3.292 5.804 1.756 10.902 3.731 15.293 5.927 4.438 2.195 8.147 4.658 11.122 7.39 2.977 2.732 5.22 5.829 6.733 9.293 1.511 3.464 2.268 7.39 2.268 11.781 0 4.633-0.904 8.779-2.707 12.438-1.806 3.659-4.416 6.756-7.83 9.293-3.414 2.535-7.488 4.463-12.221 5.779-4.73 1.319-10.023 1.976-15.877 1.976-5.267 0-10.462-0.682-15.585-2.048-5.122-1.414-9.78-3.537-13.976-6.366-4.146-2.83-7.463-6.439-9.95-10.829s-3.731-9.586-3.731-15.585h22.023c0 3.317 0.512 6.122 1.536 8.414s2.463 4.146 4.318 5.562c1.901 1.414 4.146 2.438 6.731 3.072 2.635 0.634 5.512 0.952 8.634 0.952 3.804 0 6.926-0.537 9.366-1.608 2.488-1.074 4.316-2.562 5.487-4.466 1.221-1.901 1.831-4.049 1.831-6.439z"></path>
</svg>
