<!-- Generated by IcoMoon.io -->
<svg version="1.1" xmlns="http://www.w3.org/2000/svg" width="2139" height="1024" viewBox="0 0 2139 1024">
<title></title>
<g id="icomoon-ignore">
</g>
<path d="M1081.558 487.954c-10.106-13.446-14.939-29.334-13.792-45.329v-65.72c0-20.145 4.572-35.455 13.712-45.93 9.143-10.474 24.845-15.688 47.106-15.644 20.919 0 35.769 4.458 44.549 13.371 9.578 11.373 14.238 25.284 13.171 39.312v15.444h-37.419v-15.644c0.132-5.122-0.23-10.242-1.085-15.31-0.537-3.466-2.423-6.672-5.345-9.093-3.843-2.61-8.684-3.875-13.56-3.543-5.125-0.33-10.21 1.004-14.254 3.743-3.259 2.683-5.432 6.199-6.199 10.028-1.074 5.363-1.566 10.802-1.472 16.245v79.76c-0.589 7.694 1.060 15.394 4.804 22.396 1.861 2.371 4.446 4.248 7.468 5.429 3.022 1.179 6.362 1.616 9.653 1.256 4.795 0.341 9.553-0.956 13.251-3.609 3.047-2.612 5.008-6.019 5.577-9.694 0.874-5.293 1.263-10.636 1.163-15.979v-16.179h37.419v14.775c1.051 14.623-3.495 29.141-12.937 41.317-8.602 9.76-23.245 14.641-44.783 14.641s-37.808-5.213-47.027-16.045z"></path>
<path d="M1237.365 488.623c-9.453-10.229-14.179-25.138-14.179-44.86v-69.131c0-19.522 4.726-34.297 14.179-44.326 9.45-10.028 25.256-15.019 47.413-14.975 22.002 0 37.731 4.993 47.181 14.975 9.453 10.028 14.256 24.804 14.256 44.326v69.131c0 19.522-4.804 34.497-14.411 44.792-9.605 10.297-25.256 15.444-47.027 15.444s-37.886-5.213-47.413-15.376zM1302.212 472.041c3.384-6.406 4.927-13.426 4.492-20.457v-84.639c0.435-6.897-1.081-13.781-4.415-20.057-1.9-2.421-4.547-4.33-7.644-5.511-3.097-1.183-6.515-1.591-9.867-1.174-3.361-0.405-6.788 0.007-9.894 1.188s-5.769 3.083-7.691 5.498c-3.409 6.258-4.952 13.153-4.494 20.057v85.040c-0.471 7.036 1.072 14.061 4.494 20.46 2.18 2.155 4.872 3.884 7.892 5.070 3.020 1.183 6.299 1.795 9.616 1.795s6.597-0.612 9.616-1.795c3.020-1.186 5.712-2.915 7.894-5.070v-0.403z"></path>
<path d="M1391.225 317.349h40.289l30.292 127.549 30.991-127.549h39.203l3.95 184.104h-28.975l-3.099-127.95-29.905 127.95h-23.245l-30.989-128.419-2.867 128.419h-29.286l3.641-184.104z"></path>
<path d="M1581.122 317.349h62.755c36.154 0 54.231 17.426 54.231 52.276 0 33.38-19.033 50.049-57.098 50.003h-21.383v81.824h-38.737l0.232-184.104zM1634.734 396.031c3.827 0.419 7.714 0.116 11.394-0.887 3.677-1.004 7.061-2.685 9.912-4.929 4.442-6.217 6.401-13.519 5.577-20.789 0.203-5.616-0.421-11.232-1.859-16.712-0.553-1.832-1.522-3.548-2.851-5.052-1.331-1.504-2.995-2.763-4.897-3.707-5.377-2.225-11.321-3.236-17.276-2.94h-15.030v55.016h15.030z"></path>
<path d="M1753.969 317.349h41.604l42.689 184.104h-36.104l-8.445-42.45h-37.11l-8.677 42.45h-36.646l42.687-184.104zM1789.531 437.678l-14.488-77.278-14.488 77.278h28.977z"></path>
<path d="M1872.739 317.349h27.116l51.91 105.021v-105.021h32.154v184.104h-25.8l-52.219-109.634v109.634h-33.237l0.077-184.104z"></path>
<path d="M2059.223 431.254l-43.154-113.648h36.336l26.342 73.002 24.715-73.002h35.56l-42.61 113.648v70.194h-37.189v-70.194z"></path>
<path d="M1141.371 581.941v9.628h-31.61v74.809h-13.248v-74.809h-31.764v-9.628h76.623z"></path>
<path d="M1240.46 666.383h-10.229c-1.038 0.057-2.062-0.23-2.865-0.801-0.774-0.489-1.368-1.163-1.704-1.939l-9.143-20.054h-43.852l-9.141 20.054c-0.262 0.84-0.737 1.616-1.395 2.273-0.81 0.56-1.83 0.844-2.867 0.801h-10.226l38.737-84.432h13.483l39.203 84.098zM1176.307 635.030h36.57l-15.497-34.361c-1.142-2.599-2.1-5.254-2.867-7.955-0.542 1.604-1.006 3.143-1.47 4.481l-1.395 3.543-15.342 34.293z"></path>
<path d="M1307.243 658.095c2.426 0.109 4.856 0.109 7.284 0 2.094-0.187 4.167-0.523 6.196-1.004 1.898-0.403 3.764-0.915 5.58-1.538 1.704-0.601 3.409-1.336 5.191-2.073v-18.987h-15.497c-0.382 0.018-0.765-0.032-1.126-0.146-0.36-0.116-0.687-0.294-0.965-0.523-0.255-0.189-0.455-0.426-0.589-0.692s-0.198-0.555-0.184-0.847v-6.485h30.060v32.361c-2.453 1.516-5.045 2.856-7.748 4.012-2.763 1.176-5.639 2.139-8.599 2.874-3.168 0.806-6.408 1.386-9.685 1.739-3.755 0.36-7.532 0.539-11.312 0.535-6.681 0.050-13.31-1.017-19.524-3.143-5.798-2.012-11.068-5.013-15.494-8.825-4.312-3.85-7.71-8.392-9.994-13.371-2.442-5.598-3.65-11.539-3.564-17.517-0.082-6.019 1.099-11.997 3.486-17.651 2.228-5.004 5.632-9.557 9.994-13.371 4.421-3.8 9.694-6.779 15.494-8.759 6.636-2.155 13.676-3.22 20.764-3.143 3.607-0.005 7.209 0.241 10.77 0.735 3.147 0.441 6.237 1.158 9.218 2.139 2.71 0.878 5.307 1.998 7.748 3.343 2.373 1.32 4.628 2.794 6.74 4.412l-3.718 5.216c-0.291 0.476-0.726 0.876-1.258 1.158-0.53 0.282-1.14 0.437-1.764 0.446-0.858-0.023-1.691-0.255-2.403-0.669-1.161-0.535-2.401-1.201-3.796-2.005-1.648-0.892-3.384-1.652-5.191-2.273-2.31-0.799-4.694-1.427-7.127-1.873-3.245-0.514-6.54-0.762-9.84-0.735-5.113-0.048-10.188 0.746-14.953 2.339-4.312 1.493-8.199 3.775-11.389 6.688-3.211 3.036-5.664 6.608-7.207 10.497-3.461 9.143-3.461 19.001 0 28.146 1.695 3.971 4.335 7.594 7.748 10.631 3.177 2.897 7.034 5.177 11.312 6.686 4.927 1.459 10.147 2.030 15.34 1.673z"></path>
<path d="M1430.742 656.75h42.303v9.628h-55.241v-84.437h13.248l-0.309 74.809z"></path>
<path d="M1517.049 666.378h-13.248v-84.437h13.248v84.437z"></path>
<path d="M1566.324 582.344c0.785 0.387 1.472 0.91 2.014 1.538l56.634 63.647c-0.077-1.001-0.077-2.007 0-3.008 0-0.935 0-1.873 0-2.742v-60.17h11.542v84.776h-6.661c-0.988 0.068-1.977-0.093-2.867-0.469-0.806-0.421-1.513-0.965-2.091-1.604l-56.557-63.581c0 1.001 0 1.939 0 2.874s0 1.805 0 2.608v60.173h-11.080v-84.441h6.895c0.749 0 1.488 0.137 2.171 0.4z"></path>
<path d="M1734.058 581.941v9.293h-46.949v27.878h38.040v8.959h-38.040v28.815h46.949v9.291h-60.584v-84.237h60.584z"></path>
<path d="M345.775 60.5l588.272 144.134v505.072l-588.272-144.068v-505.139zM308.044 17.447v572.727l663.657 162.652v-572.66l-663.657-162.719z"></path>
<path d="M663.734 1018.691l-663.734-162.789v-572.666l663.734 162.72v572.735z"></path>
<path d="M319.044 54.015l580.601 142.327-246.914 213.124-580.679-142.395 246.992-213.055zM308.042 17.447l-308.042 265.803 663.734 162.716 307.965-265.802-663.657-162.717z"></path>
<path d="M701.078 986.474l270.62-233.577-270.62-66.383v299.959z"></path>
</svg>
