<!-- Generated by IcoMoon.io -->
<svg version="1.1" xmlns="http://www.w3.org/2000/svg" width="1024" height="1024" viewBox="0 0 1024 1024">
<title></title>
<g id="icomoon-ignore">
</g>
<path d="M1024 512c0 141.384-57.308 269.384-149.962 362.038s-220.654 149.962-362.038 149.962c-141.384 0-269.385-57.308-362.039-149.962s-149.961-220.654-149.961-362.038c0-141.384 57.308-269.385 149.961-362.039s220.655-149.961 362.039-149.961c141.384 0 269.384 57.308 362.038 149.961s149.962 220.655 149.962 362.039z"></path>
<path d="M716.7 716.797v-0.018h0.102v-150.221c0-73.49-15.821-130.099-101.734-130.099-41.3 0-69.018 22.664-80.333 44.152h-1.196v-37.292h-81.459v273.459h84.823v-135.406c0-35.653 6.758-70.129 50.908-70.129 43.505 0 44.152 40.689 44.152 72.415v133.138h84.736z"></path>
<path d="M313.958 443.338h84.925v273.459h-84.925v-273.459z"></path>
<path d="M356.388 307.197c-27.154 0-49.185 22.031-49.185 49.185s22.031 49.646 49.185 49.646c27.154 0 49.185-22.492 49.185-49.646-0.015-27.154-22.049-49.185-49.185-49.185v0z"></path>
</svg>
