<!-- Generated by IcoMoon.io -->
<svg version="1.1" xmlns="http://www.w3.org/2000/svg" width="1024" height="1024" viewBox="0 0 1024 1024">
<title></title>
<g id="icomoon-ignore">
</g>
<path d="M1024 512c0 141.384-57.308 269.384-149.962 362.038s-220.654 149.962-362.038 149.962c-141.384 0-269.385-57.308-362.039-149.962s-149.961-220.654-149.961-362.038c0-141.384 57.308-269.385 149.961-362.039s220.655-149.961 362.039-149.961c141.384 0 269.384 57.308 362.038 149.961s149.962 220.655 149.962 362.039z"></path>
<path d="M580.216 375.206h37.394v-65.126c-6.451-0.886-28.639-2.883-54.477-2.883-53.914 0-90.847 33.91-90.847 96.238v57.362h-59.494v72.806h59.494v183.194h72.942v-183.178h57.088l9.062-72.806h-66.166v-50.158c0.015-21.043 5.683-35.448 35.003-35.448z"></path>
</svg>
