<!-- Generated by IcoMoon.io -->
<svg version="1.1" xmlns="http://www.w3.org/2000/svg" width="1024" height="1024" viewBox="0 0 1024 1024">
<title></title>
<g id="icomoon-ignore">
</g>
<path d="M1024 512c0 141.384-57.308 269.384-149.962 362.038s-220.654 149.962-362.038 149.962c-141.384 0-269.385-57.308-362.039-149.962s-149.961-220.654-149.961-362.038c0-141.384 57.308-269.385 149.961-362.039s220.655-149.961 362.039-149.961c141.384 0 269.384 57.308 362.038 149.961s149.962 220.655 149.962 362.039z"></path>
<path d="M716.398 427.62c-0.96-21.763-4.48-36.726-9.521-49.69-5.202-13.763-13.202-26.084-23.685-36.326-10.243-10.401-22.646-18.486-36.247-23.606-13.041-5.041-27.924-8.561-49.69-9.521-21.926-1.039-28.887-1.28-84.498-1.28s-62.572 0.241-84.416 1.201c-21.763 0.957-36.726 4.48-49.687 9.521-13.765 5.199-26.086 13.202-36.329 23.685-10.401 10.243-18.483 22.646-23.606 36.247-5.041 13.043-8.561 27.924-9.521 49.687-1.039 21.926-1.28 28.887-1.28 84.498s0.241 62.572 1.201 84.419c0.957 21.763 4.48 36.726 9.523 49.69 5.199 13.763 13.281 26.084 23.683 36.326 10.243 10.401 22.646 18.486 36.247 23.603 13.043 5.043 27.924 8.563 49.692 9.521 21.842 0.965 28.805 1.201 84.416 1.201s62.572-0.236 84.416-1.201c21.763-0.957 36.726-4.477 49.687-9.521 27.528-10.642 49.29-32.404 59.935-59.93 5.038-13.043 8.561-27.927 9.521-49.69 0.96-21.847 1.201-28.808 1.201-84.419s-0.082-62.572-1.042-84.416zM679.514 594.852c-0.883 20.006-4.242 30.807-7.043 38.008-6.884 17.843-21.046 32.008-38.889 38.889-7.201 2.801-18.081 6.162-38.008 7.040-21.604 0.963-28.083 1.198-82.734 1.198s-61.212-0.236-82.737-1.198c-20.004-0.878-30.807-4.239-38.008-7.040-8.881-3.282-16.963-8.484-23.524-15.283-6.802-6.643-12.001-14.643-15.283-23.524-2.801-7.201-6.162-18.084-7.040-38.008-0.963-21.604-1.201-28.086-1.201-82.737s0.238-61.212 1.201-82.737c0.878-20.004 4.239-30.804 7.040-38.006 3.282-8.883 8.481-16.963 15.365-23.526 6.638-6.802 14.641-12.004 23.524-15.283 7.201-2.798 18.084-6.159 38.006-7.040 21.604-0.96 28.088-1.201 82.737-1.201 54.73 0 61.21 0.241 82.737 1.201 20.004 0.881 30.807 4.242 38.008 7.040 8.878 3.279 16.963 8.481 23.524 15.283 6.799 6.641 12.001 14.643 15.283 23.526 2.801 7.201 6.159 18.081 7.043 38.006 0.96 21.606 1.201 28.086 1.201 82.737s-0.241 61.051-1.201 82.655z"></path>
<path d="M512.76 406.815c-58.089 0-105.221 47.13-105.221 105.221 0 58.094 47.132 105.221 105.221 105.221 58.092 0 105.219-47.127 105.219-105.221 0-58.092-47.127-105.221-105.219-105.221zM512.76 580.291c-37.686 0-68.255-30.566-68.255-68.255s30.569-68.255 68.255-68.255c37.688 0 68.252 30.566 68.252 68.255s-30.564 68.255-68.252 68.255z"></path>
<path d="M646.707 402.655c0 13.565-10.998 24.563-24.566 24.563-13.565 0-24.566-10.998-24.566-24.563 0-13.568 11-24.563 24.566-24.563 13.568 0 24.566 10.995 24.566 24.563z"></path>
</svg>
