<!-- Generated by IcoMoon.io -->
<svg version="1.1" xmlns="http://www.w3.org/2000/svg" width="1024" height="1024" viewBox="0 0 1024 1024">
<title></title>
<g id="icomoon-ignore">
</g>
<path d="M1024 512c0 141.384-57.308 269.384-149.962 362.038s-220.654 149.962-362.038 149.962c-141.384 0-269.385-57.308-362.039-149.962s-149.961-220.654-149.961-362.038c0-141.384 57.308-269.385 149.961-362.039s220.655-149.961 362.039-149.961c141.384 0 269.384 57.308 362.038 149.961s149.962 220.655 149.962 362.039z"></path>
<path d="M716.8 384.996c-15.232 6.682-31.462 11.11-48.384 13.261 17.408-10.394 30.694-26.726 36.941-46.413-16.23 9.677-34.15 16.512-53.248 20.326-15.411-16.41-37.376-26.573-61.338-26.573-46.49 0-83.917 37.734-83.917 83.994 0 6.656 0.563 13.056 1.946 19.149-69.811-3.405-131.584-36.864-173.082-87.834-7.245 12.57-11.494 26.957-11.494 42.445 0 29.082 14.976 54.861 37.299 69.786-13.491-0.256-26.726-4.173-37.939-10.342 0 0.256 0 0.589 0 0.922 0 40.806 29.107 74.701 67.277 82.509-6.835 1.869-14.285 2.765-22.016 2.765-5.376 0-10.803-0.307-15.898-1.434 10.88 33.254 41.754 57.702 78.464 58.496-28.57 22.349-64.845 35.814-104.115 35.814-6.886 0-13.491-0.307-20.096-1.152 37.197 23.987 81.28 37.683 128.819 37.683 154.522 0 239.002-128 239.002-238.95 0-3.712-0.128-7.296-0.307-10.854 16.666-11.827 30.669-26.598 42.086-43.597z"></path>
</svg>
